<?xml version="1.0" standalone="no"?>
<!DOCTYPE svg PUBLIC "-//W3C//DTD SVG 20010904//EN"
 "http://www.w3.org/TR/2001/REC-SVG-20010904/DTD/svg10.dtd">
<svg version="1.0" xmlns="http://www.w3.org/2000/svg"
 width="200.000000pt" height="200.000000pt" viewBox="0 0 200.000000 200.000000"
 preserveAspectRatio="xMidYMid meet">
<metadata>
Created by potrace 1.11, written by Peter Selinger 2001-2013
</metadata>
<g transform="translate(0.000000,200.000000) scale(0.100000,-0.100000)"
fill="#000000" stroke="none">
<path d="M847 1981 c-14 -5 -7 -12 33 -30 47 -21 52 -22 75 -7 36 24 31 36
-17 37 -24 0 -50 2 -58 3 -8 2 -23 0 -33 -3z"/>
<path d="M975 1939 c-47 -29 -54 -32 -72 -24 -16 7 -31 11 -68 19 -5 1 -15 5
-22 9 -8 5 -17 0 -25 -13 -9 -13 -23 -20 -46 -20 -40 0 -141 -49 -202 -99 -24
-20 -48 -36 -53 -36 -5 0 -14 -8 -21 -17 -7 -10 -24 -18 -38 -18 -34 0 -41
-10 -20 -27 12 -10 13 -16 5 -19 -19 -8 -28 -5 -28 7 0 7 -8 17 -18 23 -15 9
-21 7 -33 -8 -18 -26 -18 -40 1 -32 38 14 5 -22 -45 -49 -45 -25 -100 -75
-100 -92 0 -7 -7 -13 -15 -13 -9 0 -19 -8 -22 -17 -4 -10 -10 -20 -14 -23 -4
-3 -9 -14 -11 -25 -2 -15 3 -20 22 -20 14 0 28 4 32 10 5 7 8 6 8 -1 0 -6 -9
-19 -20 -29 -22 -20 -27 -45 -8 -45 7 0 -1 -12 -18 -28 -18 -16 -35 -47 -43
-75 -8 -26 -17 -50 -22 -53 -4 -2 -6 -11 -2 -19 3 -8 0 -15 -7 -15 -6 0 -8 -5
-4 -12 13 -21 13 -131 0 -144 -17 -17 -11 -370 6 -400 3 -5 4 -17 3 -26 -2
-10 0 -18 5 -18 4 0 7 -8 7 -17 0 -43 5 -53 33 -70 16 -9 30 -25 30 -35 0 -10
3 -17 8 -17 18 3 33 -2 28 -9 -7 -12 50 -39 102 -48 19 -3 50 -45 56 -76 4
-19 12 -28 25 -28 23 0 32 -18 20 -42 -6 -11 -4 -22 7 -32 8 -9 16 -26 18 -38
4 -34 22 -62 49 -77 21 -11 28 -11 51 5 l27 17 -33 21 c-41 25 -63 46 -49 46
5 0 13 -5 17 -11 3 -6 26 -19 50 -29 24 -11 44 -22 44 -25 0 -4 -5 -3 -11 0
-6 4 -5 -2 3 -14 7 -12 16 -21 21 -21 4 0 6 -4 3 -8 -8 -13 92 -33 142 -29 23
1 42 -1 42 -5 0 -4 -9 -8 -20 -8 -19 0 -29 -18 -12 -21 33 -6 61 -6 81 -2 l24
6 -24 13 c-14 8 -18 13 -9 13 19 0 51 -24 45 -33 -3 -3 1 -2 7 4 16 13 51 13
43 0 -4 -6 2 -7 17 -1 15 6 31 5 42 -1 11 -6 16 -6 13 -1 -8 13 23 37 51 40
14 2 22 -3 22 -12 0 -17 0 -17 62 -20 26 -1 45 1 43 6 -11 16 15 19 38 4 13
-8 27 -12 31 -8 3 4 12 8 19 9 67 12 207 72 207 89 0 25 55 52 102 51 26 0 46
3 45 9 -1 6 4 9 11 7 6 -1 12 3 12 9 0 5 5 7 10 4 6 -3 10 2 10 11 0 10 3 14
6 11 4 -3 15 5 26 18 11 14 24 23 29 19 5 -3 9 -2 8 3 -1 4 0 13 1 18 1 6 1
24 1 40 -1 17 5 39 14 50 9 11 13 13 9 5 -10 -20 5 -4 40 43 35 48 46 41 13
-8 -14 -21 -23 -43 -21 -50 3 -7 0 -16 -6 -20 -8 -5 -8 -11 1 -21 9 -12 15
-11 39 6 15 11 31 16 35 12 5 -4 5 -2 1 5 -3 6 -2 14 4 18 5 3 10 29 10 56 0
46 2 50 20 44 14 -5 20 -2 20 10 0 9 4 14 8 11 4 -2 14 -1 22 4 12 7 11 12 -4
29 -19 21 -19 21 -33 2 -7 -11 -10 -28 -7 -38 5 -16 4 -16 -10 1 -20 25 -20
32 -1 40 8 3 15 12 15 21 0 15 6 25 37 59 7 8 14 24 17 37 15 74 19 89 29 89
6 0 7 3 4 7 -4 3 -2 12 4 19 13 16 23 135 15 169 -4 14 -13 25 -21 25 -14 0
-13 3 0 24 18 28 20 178 2 250 -5 23 -10 47 -10 54 0 6 -3 12 -7 12 -3 0 -6 9
-7 21 -5 59 -106 219 -139 219 -8 0 -14 3 -14 8 0 4 -10 12 -22 17 -16 7 -24
20 -26 41 -2 21 -11 35 -28 44 -13 8 -24 18 -23 24 3 26 -3 37 -37 71 -40 41
-80 67 -185 122 -70 38 -78 40 -151 37 -70 -3 -79 -2 -89 17 -8 15 -18 20 -35
16 -16 -3 -28 1 -33 12 -14 24 -147 25 -186 0z m172 -16 c-8 -7 -37 9 -31 19
3 5 12 4 20 -3 8 -6 13 -14 11 -16z m-697 -1713 c0 -5 -2 -10 -4 -10 -3 0 -8
5 -11 10 -3 6 -1 10 4 10 6 0 11 -4 11 -10z"/>
<path d="M505 1872 c-24 -17 -75 -84 -75 -98 0 -12 4 -12 20 -4 32 17 111 96
104 103 -9 9 -36 9 -49 -1z"/>
<path d="M391 1776 c-8 -10 -9 -16 -1 -21 13 -8 30 3 30 21 0 18 -14 18 -29 0z"/>
<path d="M1765 1610 c-9 -28 2 -40 36 -40 34 0 35 2 13 35 -20 30 -40 32 -49
5z"/>
<path d="M1830 1549 c0 -5 5 -7 10 -4 6 3 10 8 10 11 0 2 -4 4 -10 4 -5 0 -10
-5 -10 -11z"/>
<path d="M22 1120 c-12 -20 -17 -82 -6 -93 8 -8 33 16 27 26 -2 4 1 7 7 7 6 0
9 4 5 9 -3 5 -1 12 4 16 7 4 6 15 -1 30 -14 30 -19 31 -36 5z"/>
<path d="M237 384 c-7 -7 6 -21 50 -52 22 -15 34 -19 39 -11 3 6 3 14 -2 18
-5 3 -14 15 -20 25 -10 19 -54 32 -67 20z"/>
<path d="M292 300 c2 -8 16 -17 30 -21 20 -5 25 -4 21 7 -3 8 -9 14 -13 14 -5
0 -16 3 -26 7 -11 4 -15 2 -12 -7z"/>
<path d="M1497 152 c-15 -10 -24 -22 -20 -26 4 -4 1 -12 -7 -17 -11 -8 -5 -9
23 -7 21 2 37 0 37 -7 0 -5 4 -4 9 4 5 7 14 10 20 7 6 -4 11 -2 11 3 0 6 6 11
14 11 23 0 27 29 6 40 -28 15 -62 12 -93 -8z"/>
<path d="M1390 69 l-25 -20 30 4 c38 5 65 16 65 28 0 16 -45 9 -70 -12z"/>
</g>
</svg>
